<?xml version="1.0" encoding="UTF-8"?>
<svg viewBox="0 0 1868 1370" xmlns="http://www.w3.org/2000/svg">
<path d="M0 1370h1868V0H0v1370M1266 369c10.99 1.65 22.64.81 34 1 .53-1.6 2.75-.72 4-1 9.49.18 17.53.31 27 0 .11-1-.47-2.73 1-3 2.95-7.83 5.46-16.34 12-22-.45-2.31 2.53-3.07 3-5 20.83-25.17 54.3-25.54 84.67-27.33 29.79-4.57 60.47 14.67 62.33 46.33 5.96 29.54-16.86 60.73-47 63-.8.13-1.11 1.09-2 1h-11c-8.82 4.25-6.01 19.58-11.26 27.74-2.34 10.42-6.4 21.14-8.74 31.26.53 1.28-.97 1.86-1 3-1.22 6.82-4.04 13.12-5 20 .14 1.81-.44 4.08-2 5-4.18 17.69-9.45 36.48-16 54 14.57 14.95 27.61 34.41 42 51 3.26 1.82 4.68 5.34 7 8 14.65 19.54 31.21 36.47 44.75 56.25 14.24 23.14-2.43 58.26-29.75 60.75-2.24.56-4.48 1.38-7 1h-16c-15.96 1.93-34.03.62-51 1 .58 10.24 18.07 4.15 25 8h3c21.56 6.7 41.52 18.01 56 36-.45 2.31 2.53 3.07 3 5 25.71 35.94 16.03 85.21 18 129 2.08 15.46-2.77 30.08-3.01 44.01 6.8 30.1 1.16 63.56 3.01 94.99.05 31.2-.15 64.4.2 94.25 3.48 28.12-17.93 53.39-46.2 52.75-14.64-.46-29.76 1.04-44-1-2.16.53-4.24-1.11-5-3-3.71-.78-5 4.52-9 3-.5-.02-1.5 0-2 0-1.45 1.96-4.8.56-7 1h-6c-5.58-.73-11.85.44-18 0h-8c-.5 0-1.5-.03-2 0-3.25.11-6.61.45-9-2-24.51 2.95-52.62 6.17-76-5-.87-.95-2.68-.54-3-2-5.75-2.81-11.95-5.38-16-10-15.91 10.88-33.63 18.2-53 20-.5.01-1 0-1 0-3.27 1.59-9.81 1.71-13 0-1.39-.54-3.25 2.3-4 0-9.39.58-19.26-5.61-28-1h-34c-7.74-.14-15.74.96-22.68-2.32-6.87-1.09-13.67 4.08-21.32 2.32-13.27-.6-27.14 1.24-40-1-2.53-1.14-5.22-1.7-8-2-24.92 8.57-56.03 3.79-77.89-9.11-9.61-11.68-19.29-1.86-29.8 3.42-11.83 5.21-24.88 8.83-38.31 9.69-1.45 1.96-4.8.56-7 1-25.81.88-50.13-5.29-72-17-2.36-1.74-4.51-3.55-7-5-2.35-1.02-4.85-2.58-6-5-2.14-.84-4.27-3.13-6-5-2.38-2.8-5.57-5.26-7-9-2.29 32.39-40.18 43.96-70 39-11.05 2.42-22.62-4.28-32-1-15.83 2.32-32.75.35-49 1-14.81-7.09-31.17 4.9-47 1-48.74-.84-91.88-43.3-84-95-.23-1.83.07-3.47 1-5 2.14-12.43 5.44-26.61 15-35-14.23-14.63-14.21-39.72-2-55 3.28-4.31 6.67-9.08 12-11 15.54-11.49 34.64-18.23 54-21 .24-1.67 2.85-.17 3-2-11.61-2.27-23.58-4.96-34-10-1.83.12-4.46.26-5-2-20.13-7.1-42.75-20.41-46.78-43.22C470 903.17 484.8 881.63 497 863c-29.64-34.64-25.74-94.82 8-125-5.3-5.75-13.56-8.75-18-16 .82-2.01-1.82-1.47-2-3-1.16-5.31-5.7-9.72-4-16-1.5-1.64-1.72-6.43 0-8 .47-23.72 23.3-39.45 35.3-57.7 28.31-35.1 55.78-69.73 83.7-104.3.97-1.85 1.79-4.24 4-5 31.94-41.76 65.36-82.12 98.25-123.75 16.94-20.42 33.41-49.68 64.75-46.25 1.6.56 4.03.5 5 2 20.67 1.56 31.84 21.02 46 33 7.16-13.23 18.36-25.72 27-38 .97-1.85 1.79-4.24 4-5 18.09-27.76 38.86-52.85 57-80 2.19-2.23 3.13-5.55 6-7 5.7-8.33 11.23-17.54 18-24 .27-1.83 1.02-4.3 3-5 25.59-35.88 50.84-71.42 77-106 2.54-3.26 4.45-7.88 9-8 12.25-12.09 34.12-10.35 48.25-2.25 23.52 20.03 38.01 48.4 57.05 70.95 38.67 48.74 73.63 98.16 111.45 145.55 9.92 11.15 16.26 28.76 30.25 34.75z" fill="none" fill-opacity="0" stroke="None"/>
<path d="M1019 120c-2.44 2.58-6.24 8.38-9 8-26.16 34.58-51.41 70.12-77 106 1.49 1.24-1.35 4.4-3 5-6.77 6.46-12.3 15.67-18 24-1.83 2.43-3.05 5.63-6 7-18.14 27.15-38.91 52.24-57 80 1.67 1.16-2.74 6.71-4 5-8.64 12.28-19.84 24.77-27 38-14.16-11.98-25.33-31.44-46-33-1.78-.25-5.36 1.03-5-2-31.34-3.43-47.81 25.83-64.75 46.25C669.36 445.88 635.94 486.24 604 528c-1.98 1.32-1.16 6.62-4 5-27.92 34.57-55.39 69.2-83.7 104.3-12 18.25-34.83 33.98-35.3 57.7v8c-1.7 6.28 2.84 10.69 4 16 2.22-.05 3.99 2.29 5 4-1.28.53-1.86-.97-3-1 4.44 7.25 12.7 10.25 18 16-33.74 30.18-37.64 90.36-8 125-12.2 18.63-27 40.17-23.78 63.78 4.03 22.81 26.65 36.12 46.78 43.22 1.16 1.16 6.9-.97 5 2 10.42 5.04 22.39 7.73 34 10h6c-2.2 2.04-5.87 2.15-9 2-19.36 2.77-38.46 9.51-54 21-1.2 2.16-8.35 9.88-12 11-12.21 15.28-12.23 40.37 2 55-9.56 8.39-12.86 22.57-15 35 1.86.95 1.12 4.63-1 5-7.88 51.7 35.26 94.16 84 95 15.83 3.9 32.19-8.09 47-1 5.09-4.54 16.49-.76 24-2 8.16.66 17.66-1.33 25 1 9.38-3.28 20.95 3.42 32 1 29.82 4.96 67.71-6.61 70-39 1.43 3.74 4.62 6.2 7 9 2.35 1.02 4.85 2.58 6 5 1.15 2.42 3.65 3.98 6 5 1.95-.53 6.47 1.81 7 5 21.87 11.71 46.19 17.88 72 17 1.45-1.96 4.8-.56 7-1 13.43-.86 26.48-4.48 38.31-9.69 10.51-5.28 20.19-15.1 29.8-3.42 21.86 12.9 52.97 17.68 77.89 9.11 1.71-2.57 6.34-2.63 8 0 11.65 4.18 29.58-2.66 40 3 7.65 1.76 14.45-3.41 21.32-2.32 6.94 3.28 14.94 2.18 22.68 2.32 2.8-4.4 11.79-.86 17-2 5.4 1.09 13.17-2.33 17 2 8.74-4.61 18.61 1.58 28 1 4.92-1.62 13.15-1.69 18 0 19.37-1.8 37.09-9.12 53-20 4.05 4.62 10.25 7.19 16 10 .78-1.83 5.13.14 3 2 23.38 11.17 51.49 7.95 76 5 1.08-1.63 2.93 2.31 5 1 2.94-1.57 9.13-1.71 12 0 .49.05 1 0 1 0 4.99-1.06 15.67-2.89 19 1h6c.1-.02 0-1 0-1-.82-1.52 7.62-1.74 9 0 4 1.52 5.29-3.78 9-3 .76 1.89 2.84 3.53 5 3 6.4-1.15 14.41-.85 22-1 7.09.95 17.84-2.03 22 2 28.27.64 49.68-24.63 46.2-52.75-.35-29.85-.15-63.05-.2-94.25-1.85-31.43 3.79-64.89-3.01-94.99.24-13.93 5.09-28.55 3.01-44.01-1.97-43.79 7.71-93.06-18-129-1.32 1.76-7.12-5.34-3-5-14.48-17.99-34.44-29.3-56-36 .26 2.5-3.07 1.34-5 2-.51-1.41.81-2.15 2-2-6.93-3.85-24.42 2.24-25-8 16.97-.38 35.04.93 51-1 .83-1.75 3.44-.66 5-1 4.93-1.62 13.15-1.69 18 0 27.32-2.49 43.99-37.61 29.75-60.75-13.54-19.78-30.1-36.71-44.75-56.25-3.26-1.82-4.68-5.34-7-8-14.39-16.59-27.43-36.05-42-51 6.55-17.52 11.82-36.31 16-54-2.19-1.2-.75-5.64 2-5 .96-6.88 3.78-13.18 5-20-2.2-.5-.62-5.94 1-3 2.34-10.12 6.4-20.84 8.74-31.26 5.25-8.16 2.44-23.49 11.26-27.74 2.47-3.47 9.85-2.36 13-1 30.14-2.27 52.96-33.46 47-63-1.86-31.66-32.54-50.9-62.33-46.33-30.37 1.79-63.84 2.16-84.67 27.33 3.11-1.36 4.45-5.78 8-6-3.19 3.98-7.03 7.89-11 11-6.54 5.66-9.05 14.17-12 22 2.62 6.31-7.8 5.1-12 5-4.5-1.21-15.8 2.5-16-2-1.25.28-3.47-.6-4 1-2.8 4.4-11.79.86-17 2-5.51-.51-14.04 1.47-17-3-13.99-5.99-20.33-23.6-30.25-34.75-37.82-47.39-72.78-96.81-111.45-145.55-19.04-22.55-33.53-50.92-57.05-70.95-14.13-8.1-36-9.84-48.25 2.25m26 35c58.28 74.78 115.24 151.02 172 227-35.62-19.17-64.17-52.68-103.22-64.78-20.24-6.27-24.08-31.88-37.53-46.47-10.17-17.91-21.71-35.03-32.25-52.75-22.91 66.58-43.94 134.74-66 202 15.28-11.97 28.46-28 43.75-40.25 7.17-5.98 14.95-16.37 22.25-18.75 18.1 26.76 36.24 54.93 44.78 86.22 9.27 32.99 23.65 66.2 30.22 98.78-20.23-28.21-41.23-55.85-60.3-84.69-6.9-4.67-9.03-18.2-16.7-18.31-37.23 48.75-74.75 97.61-112 146-12.16-29.18-23.89-58.43-35-88-44.45 45.43-91.69 89.12-136 135-2.23 3.31-5.56 5.79-8.25 8.75-1.72 1.55-8.47 9.28-6.75 5.25 1.85-4.95 5.75-9.1 8-14 4.24-8.11 7.88-16.75 13-24 9.31-20.05 20.92-39.2 31-59 1.05-4.74-7.13-7.57-9-12-9.17-10-19.04-19.88-29-29-28.5 27-55.55 56.05-84 83-18.52 17.36-36.1 35.92-54.25 53.75-20.13 15.98-34.27 44.77-60.75 48.25-10.59 1.65-24.48 1.68-35 0 78.52-99.36 157.27-198.47 237-297 6.2 3.17 11.15 9.89 16 15 8 7.17 15.88 15.04 23 23 7.26 7.46 14.45 16.57 23 22 71.09-103.45 147.93-203.91 220-307 .83.41 1.87.97 2 2m377 225c-1.77 2.03-5.48.53-8 1-19.04-5.34-19 16.08-22.98 28.02-11.68 39.55-23.22 79.16-34.01 118.99-5.29 12.26-5.27 26.68-13.26 37.74-9.22 13.09-26.18 8.61-39.75 11.25-47.39 3.4-94.6 7.57-142 11-15.92-6.78-29.57 19.37-11 23h73c35.83.67 72.99-1.33 108 1 16.3 1.29 10.56 27.36-4.67 24.33-48.43 1.56-97.61.22-146.33.67-25.78 2.05-63.67-1.49-65-34-1.47-1.33-1.71-5.74 0-7 2.87-34.87 43.3-34.43 70-35 32.58-3.01 65.21-5.79 98-8 13.14-5.26 34.09 3.33 41.92-11.08 15.59-54.43 30.42-109.24 48-163 2.79-13.66 16.44-23.11 30.08-22.92 14.62.23 33.89-7.46 46.25 2.75 9.05 18.57-13.92 24.52-28.25 21.25m-98 32c.5 0 1.5-.04 2 0 17.59 2.69 9.04 30.89-8 25-50.81-.3-99.03 1.23-148.07.93-13.4 6.36-29.62-2.81-44.94.08-16.23 3.97-24.25-23.98-7.99-25.01.47-.12 1.5 0 2 0 .23-.34 0-1 0-1 11.25-4.54 31.49-5.09 46.22-3.22 52.08 4.45 106.78.33 158.78 3.22m-10 47c14.56 5.01 7.71 28.85-8 24h-147c-11.97.42-36.14 3.11-32.22-15.22 7.77-14.22 26.8-7.04 40.22-8.78h147m-16 71c-.5-.04-1 0-1 0-12.14 4.63-28.31.7-42 2-30.21-.77-55.21 1.28-84 1-11.41-1.83-28.89 1.75-28-15 .4-15.96 19.16-12.77 30.67-13.33 38.6-.32 80.5.8 122.33.33 12.81-.16 15.71 23.81 2 25m75 78c23.6 29.45 47.69 58.45 71 88 2.81 2.62-3.43 1.97-5 2-22.06 3.63-47.52 4.86-66.23-10.77-7.56-8.11-14-15.41-20.52-24.48-12.01-10.8 10.8-16.9 5.75-28.75 5.7-.57 2.75-8.08 5-13-.08-8.08.48-16.27-1-24 5.23.57 9.29 6.53 11 11m-197 43c29.7 1.56 25.78 51.65-4 49-30.16 2.68-33.07-46.25-4-49 1.64-1.5 6.43-1.72 8 0m129 0c19.4 2.02 26.94 29.7 12.25 42.25-13.33 13.98-41.01 5.67-42.25-14.25-1.47-1.33-1.71-5.74 0-7 .5-10.26 9.82-19.92 20-21 2.28-1.54 7.79-1.72 10 0m-234 75c17.49.98 29.86 25 16.75 38.75-10.87 14.08-36.77 12.29-44.05-4.45-10.41-17.36 8.91-37.41 27.3-34.3M846 852c1.66 27.27 1.67 57.81 0 85v2c-13.26 1.66-29.81 1.67-43 0-2.33-27.43-.33-56.82-1-85 .2-30.13-44.54-34.67-57.3-10.3-9.62 29.62-2.51 63.71-4.7 95.3h-44V738h44v69c19.11-14.87 47.19-21.58 70.23-11.23 23.36 7.64 36.78 32.46 35.77 56.23m320-113v111a731.886 731.886 0 0036-36c6.51-7.33 13.71-14.55 21-21 15.76-2.33 33.49-.34 50-1 3.28 3.79-8.5 10.88-12 15-3.03 4.47-8.02 7.57-11 12-4.19 4.99-9.03 9.89-14 14-6.18 6.99-13.04 13.88-20 20 20.06 29.24 44.01 56.32 63 86h-37c-22.15 4.05-27.58-23.15-40.75-35.25-5.97-6.86-10.88-14.39-16.5-21.5-7.56 3.91-13.02 12.51-18.67 18.83-.19 12.64-.03 25.28-.08 37.92h-44V771c1.3-10.19-2.62-24.24 2-32 12.93-1.66 29.14-1.67 42 0m174 66c21.29-17.07 55.21-19.62 78-4 4.18 2.49 8.13 6.01 11 10 6.53 9.19 11.13 19.7 12 31 4.55 22.27.75 47.56 2 71-2.35 9.02 6.64 30.01-9 27-11.83-.67-24.99 1.33-36-1-2.33-27.77-.33-57.48-1-86-.92-37.89-63.36-28.67-59 7v78c-12.97 3.97-31.3 2.02-45 1V738h44c2.33 14.76.34 31.49 1 47 1.27 5.79-2.58 18.53 2 20M604 941c-4.59 1.62-12.48 1.7-17 0-24.75-1.15-53.04-5.53-69.97-24.03 5.72-10.46 10.38-21.36 15.97-31.97 13.86 8.83 28.9 15.91 45.01 18.99 16.62 1.16 41.89 5.46 49.99-12.99v-8c-10.85-21.77-42.08-16.77-61.68-26.32-20.35-5.85-44.3-19.64-45.32-43.68-1.57-2.94-1.71-9.13 0-12 .07-29.12 27.7-48.97 54.02-52.98 30.77-5.34 63.5-1.49 89.98 13.98-1.92 12.35-9.21 23.13-13 35-18.4-7.74-36.95-16.23-58-15-18.83-2.89-42.02 21.2-18.77 33.77 31.97 15.8 81.64 10.35 96.69 50.31 14.55 42.1-28.06 78.7-67.92 74.92m343-35h11c12.6.36 22.91-6.88 33-13 6.61 8.2 15.56 14.86 21.92 23.08-31 36.89-99.64 32.76-128.92-5.08-16.71-20.46-19.07-51.72-9-76 .66-2.46 1.55-5.72 4-7 3.75-7.8 10.32-14.36 17-20 1.76-3.02 5.14-4.35 8-6 25.57-14.22 61.2-16.03 86.25.75 25.51 14.93 36.3 46.79 31.75 75.25H913c2.33 15.89 18.07 28.26 34 28m142 32c-.22.3-.7.78-1 1-11.43 2.32-24.82.34-37 1-14-.21-3.98-22.3-7-32 .52-38.33-1.04-77.29.78-115.22 11.9-1.81 24.9-.27 37.22-.78 15.26-1.28 5.04 21.39 8 31-.67 38.17 1.34 77.65-1 115m-374 223h-41v-148c1.13-11.55-2.28-24.74 1.75-35.25 11.96-1.75 24.91-.25 37.25-.75 4.6 9.81.72 23.64 2 35v149m687 0v-149c1.35-11.27-2.72-25.48 2.09-34.92 12.63-.19 25.27-.03 37.91-.08 4.65 19.14.68 42.31 2 63v99c-1.33 8.79 5.26 27.1-10 23-10.53-.22-21.27.44-31.67-.33M1132 1037c-1.66-15.6-1.67-34.48 0-50 1.47 16.07-1.27 31.51 8 43 2.1-6.29 13.55-1.72 20.22-5.78 21.87-2.52 50.21 4.58 60.78 25.78 19.78 26.26 19.13 68.09-3.25 92.75-22.75 25.21-64.39 26.38-89.75 5.25v13h-37V978h39v42c1.07 4.76-2.31 17.06 2 17m-222 82c-8.45 54.66-88.04 56.46-119 20 7.65-9.55 15.58-18.76 22-29 12.63 15.35 45.55 31.62 55 5 3.49-30.22 2.21-63 1-93h-35c-9.21-1.79-27.4 5.76-25.99-9.01-.61-8.52-1.19-18.82 1.99-27.99 25.02-.69 49.42.43 75 0 10.05 2.44 32-5.51 28 12v83c-.99 12.92 2.54 27.65-3 39m-264 42h-37c-.45-4.3 1.04-9.12-1-13-17.67 18.13-47.52 18.8-69.08 8.08-22.58-10.25-27.14-43.96-9.17-60.33 19.8-19.86 49.99-13.79 76.25-14.75-1.64-33.73-48.63-26.68-68-13-5.83-8.47-8.53-18.4-14-27 30.7-18.16 76.34-25.02 105.75-.75 29.69 31.48 11 80.74 16.25 120.75m416 0h-37v-13c-18.55 15.79-47.62 19.99-69.69 8.69-22.73-9.8-29.21-43.1-10.56-59.94 19.24-21.13 49.95-14.75 76.25-15.75 2.81-24.19-27.97-27.86-45.02-22.02-8.31-.7-18.12 11.25-24.28 5.32-4.33-7.79-9.44-15.66-11.7-24.3 31.04-16.75 75.86-23.83 105.25.75 28.15 32.01 12.7 80.12 16.75 120.25m311 0h-24c-10.24 2.93-14.27-3.51-12-13-18.38 16.15-47.65 20-69.69 8.69-22.78-10.11-27.88-42.78-11.06-60.44 20.06-19.85 50.19-14.62 76.75-15.25.22-31.17-42.15-26.84-61.03-17.03-11.62 8.38-12.82-14.37-19.27-20.67 4.02-9.26 19.89-11.23 29.37-15.23 34.04-9.65 85.45.35 89.93 41.93 2.32 29.83.35 60.75 1 91z" fill="#FBFCFA" stroke="None"/>
<path d="M1010 128c2.76.38 6.56-5.42 9-8-4.55.12-6.46 4.74-9 8z" fill="#D3D3D2" fill-opacity=".44" stroke="None"/>
<path d="M800 438c-8-7.17-15.88-15.04-23-23-4.85-5.11-9.8-11.83-16-15-79.73 98.53-158.48 197.64-237 297h35c26.48-3.48 40.62-32.27 60.75-48.25C637.9 630.92 655.48 612.36 674 595c27.41-27.58 56.25-58.41 84-83 9.96 9.12 19.83 19 29 29 2.68 3.36 12.51 8.37 9 12-10.08 19.8-21.69 38.95-31 59-3.63 8.14-7.79 16.91-13 24-2.25 4.9-6.15 9.05-8 14 5.48-4.02 9.56-10.03 15-14 44.31-45.88 91.55-89.57 136-135 11.11 29.57 22.84 58.82 35 88 37.25-48.39 74.77-97.25 112-146 2.99-26.74-.99-55.28 2-82-7.3 2.38-15.08 12.77-22.25 18.75C1006.46 392 993.28 408.03 978 420c22.06-67.26 43.09-135.42 66-202 .66-20.91-1.32-42.53 1-63-.13-1.03-1.17-1.59-2-2-72.07 103.09-148.91 203.55-220 307-8.55-5.43-15.74-14.54-23-22z" fill="#0A472F" stroke="None"/>
<path d="M1044 218c10.54 17.72 22.08 34.84 32.25 52.75 13.45 14.59 17.29 40.2 37.53 46.47 39.05 12.1 67.6 45.61 103.22 64.78-56.76-75.98-113.72-152.22-172-227-2.32 20.47-.34 42.09-1 63z" fill="#94B35E" stroke="None"/>
<path d="M930 239c1.65-.6 4.49-3.76 3-5-1.98.7-2.73 3.17-3 5z" fill="#C5C6C2" fill-opacity=".45" stroke="None"/>
<path d="m906 270c2.95-1.37 4.17-4.57 6-7-2.87 1.45-3.81 4.77-6 7z" fill="#747474" fill-opacity=".07" stroke="None"/>
<path d="M1347 339c-.47 1.93-3.45 2.69-3 5 3.97-3.11 7.81-7.02 11-11-3.55.22-4.89 4.64-8 6z" fill="#E0E0DB" fill-opacity=".49" stroke="None"/>
<path d="M845 355c1.26 1.71 5.67-3.84 4-5-2.21.76-3.03 3.15-4 5z" fill="#CACACA" fill-opacity=".48" stroke="None"/>
<path d="M1116 596v7c1.33 32.51 39.22 36.05 65 34 48.72-.45 97.9.89 146.33-.67 15.23 3.03 20.97-23.04 4.67-24.33h-108c-24.17-.67-49.66 1.33-73-1-18.57-3.63-4.92-29.78 11-23 47.4-3.43 94.61-7.6 142-11 13.57-2.64 30.53 1.84 39.75-11.25 7.99-11.06 7.97-25.48 13.26-37.74 10.79-39.83 22.33-79.44 34.01-118.99 3.98-11.94 3.94-33.36 22.98-28.02 1.78-2.03 5.48-.53 8-1 14.33 3.27 37.3-2.68 28.25-21.25-12.36-10.21-31.63-2.52-46.25-2.75-13.64-.19-27.29 9.26-30.08 22.92-17.58 53.76-32.41 108.57-48 163-7.83 14.41-28.78 5.82-41.92 11.08-32.79 2.21-65.42 4.99-98 8-26.7.57-67.13.13-70 35z" fill="#124B35" stroke="None"/>
<path d="M772 360c-.97-1.5-3.4-1.44-5-2-.36 3.03 3.22 1.75 5 2z" fill="#DDD8D9" fill-opacity=".15" stroke="None"/>
<path d="M1042 443c7.67.11 9.8 13.64 16.7 18.31 19.07 28.84 40.07 56.48 60.3 84.69-6.57-32.58-20.95-65.79-30.22-98.78-8.54-31.29-26.68-59.46-44.78-86.22-2.99 26.72.99 55.26-2 82z" fill="#97B563" stroke="None"/>
<path d="M1304 369c.2 4.5 11.5.79 16 2 4.2.1 14.62 1.31 12-5-1.47.27-.89 2-1 3-9.47.31-17.51.18-27 0z" fill="#C4C4C3" fill-opacity=".3" stroke="None"/>
<path d="M1300 370c-11.36-.19-23.01.65-34-1 2.96 4.47 11.49 2.49 17 3 5.21-1.14 14.2 2.4 17-2z" fill="#E0DFDB" fill-opacity=".43" stroke="None"/>
<path d="M1414 381c2.52-.47 6.23 1.03 8-1-2.52.47-6.22-1.03-8 1z" fill="#7D8E84" stroke="None"/>
<path d="m1119 412h205c-52-2.89-106.7 1.23-158.78-3.22-14.73-1.87-34.97-1.32-46.22 3.22z" fill="#F4F9EA" stroke="None"/>
<path d="M1326 412c.23.34 0 1 0 1 3.9 1.76 8.19 5.33 8 10 3.24 4.37-2.7 10.75-7 12-65.83 2.33-132.75.33-199 1-14.83 4.96-27.57-16.68-11-23-16.26 1.03-8.24 28.98 7.99 25.01 15.32-2.89 31.54 6.28 44.94-.08 49.04.3 97.26-1.23 148.07-.93 17.04 5.89 25.59-22.31 8-25z" fill="#F5F8E4" stroke="None"/>
<path d="M1119 413h207s.23-.66 0-1c-.5-.04-1.5 0-2 0h-205s.23.66 0 1z" fill="#C2D2A3" stroke="None"/>
<path d="M1327 435c3.68-2.77 8.18-6.6 7-12 .19-4.67-4.1-8.24-8-10h-207c-.5 0-1.53-.12-2 0-16.57 6.32-3.83 27.96 11 23 66.25-.67 133.17 1.33 199-1z" fill="#96B463" stroke="None"/>
<path d="m800 438c-7.12-7.96-15-15.83-23-23 7.12 7.96 15 15.83 23 23z" fill="#7D988C" stroke="None"/>
<path d="M1434 422h4c1.33-1.47 5.74-1.71 7 0 .89.09 1.2-.87 2-1-3.15-1.36-10.53-2.47-13 1z" fill="#CAE3DB" fill-opacity=".58" stroke="None"/>
<path d="m1438 422h7c-1.26-1.71-5.67-1.47-7 0z" fill="#638265" fill-opacity=".07" stroke="None"/>
<path d="m1327 435c4.3-1.25 10.24-7.63 7-12 1.18 5.4-3.32 9.23-7 12z" fill="#C7D1A6" stroke="None"/>
<path d="m1314 459h-147c-13.42 1.74-32.45-5.44-40.22 8.78-3.92 18.33 20.25 15.64 32.22 15.22h147c15.71 4.85 22.56-18.99 8-24z" fill="#9AB667" stroke="None"/>
<path d="M1413 484c.03-1.14 1.53-1.72 1-3-1.62-2.94-3.2 2.5-1 3z" fill="#DEDDE2" fill-opacity=".53" stroke="None"/>
<path d="M1297 530c-46.67 1.66-95.74 1.67-142 0-19.07-.74-10.27-30.25 7-24h106c12.93.44 40.76-4.94 37 15-.88 3.43-3.45 6.85-7 8-.21.11 0 1 0 1 13.71-1.19 10.81-25.16-2-25-41.83.47-83.73-.65-122.33-.33-11.51.56-30.27-2.63-30.67 13.33-.89 16.75 16.59 13.17 28 15 28.79.28 53.79-1.77 84-1 13.69-1.3 29.86 2.63 42-2z" fill="#F6FAE9" stroke="None"/>
<path d="M1406 509c1.56-.92 2.14-3.19 2-5-2.75-.64-4.19 3.8-2 5z" fill="#C5C5C5" fill-opacity=".41" stroke="None"/>
<path d="M1155 530c.5-.04 1 0 1 0-18.33-1.53-10.8-29.54 7-23h104c13.11 1.51 38.94-6.56 38 14 3.76-19.94-24.07-14.56-37-15h-106c-17.27-6.25-26.07 23.26-7 24z" fill="#BCCC9B" stroke="None"/>
<path d="M1156 530c47.25-.65 95.16 1.32 142-1 3.55-1.15 6.12-4.57 7-8 .94-20.56-24.89-12.49-38-14h-104c-17.8-6.54-25.33 21.47-7 23z" fill="#97B464" stroke="None"/>
<path d="m674 595c28.45-26.95 55.5-56 84-83-27.75 24.59-56.59 55.42-84 83z" fill="#759285" stroke="None"/>
<path d="M600 533c2.84 1.62 2.02-3.68 4-5-2.21.76-3.03 3.15-4 5z" fill="#B6B6B5" fill-opacity=".4" stroke="None"/>
<path d="M1156 530s-.5-.04-1 0c46.26 1.67 95.33 1.66 142 0 0 0 .5-.04 1 0 0 0-.21-.89 0-1-46.84 2.32-94.75.35-142 1z" fill="#DFE7C4" stroke="None"/>
<path d="m796 553c3.51-3.63-6.32-8.64-9-12 1.87 4.43 10.05 7.26 9 12z" fill="#809A8D" stroke="None"/>
<path d="m1116 603v-7c-1.71 1.26-1.47 5.67 0 7z" fill="#99ACA7" stroke="None"/>
<path d="M1439 698c-12.5-.67-26.32 1.33-38-1-23.2-2.5-39.56-25.39-52-43 18-12.25 17.66-35.56 15-55 4.06 2.02 5.44 6.73 9 9-1.71-4.47-5.77-10.43-11-11 1.48 7.73.92 15.92 1 24-2.25 4.92.7 12.43-5 13 5.05 11.85-17.76 17.95-5.75 28.75 6.52 9.07 12.96 16.37 20.52 24.48 18.71 15.63 44.17 14.4 66.23 10.77z" fill="#EDF3DD" stroke="None"/>
<path d="M1401 697c14.17-.67 29.66 1.33 43-1-23.31-29.55-47.4-58.55-71-88-3.56-2.27-4.94-6.98-9-9 2.66 19.44 3 42.75-15 55 12.44 17.61 28.8 40.5 52 43z" fill="#98B662" stroke="None"/>
<path d="M1224 612c-.04 0 0-1 0-1h-73c23.34 2.33 48.83.33 73 1z" fill="#84A098" stroke="None"/>
<path d="M1224 612h108c-35.01-2.33-72.17-.33-108-1 0 0-.04 1 0 1z" fill="#6A867D" stroke="None"/>
<path d="m752 636c5.21-7.09 9.37-15.86 13-24-5.12 7.25-8.76 15.89-13 24z" fill="#42565A" stroke="None"/>
<path d="m1439 622c-2.32-2.66-3.74-6.18-7-8 2.32 2.66 3.74 6.18 7 8z" fill="#757374" fill-opacity=".05" stroke="None"/>
<path d="m744 650c-1.72 4.03 5.03-3.7 6.75-5.25 2.69-2.96 6.02-5.44 8.25-8.75-5.44 3.97-9.52 9.98-15 14z" fill="#BACCC5" stroke="None"/>
<path d="m1168 651h8c-1.57-1.72-6.36-1.5-8 0z" fill="#7A8E84" stroke="None"/>
<path d="m1295 651h10c-2.21-1.72-7.72-1.54-10 0z" fill="#879C93" stroke="None"/>
<path d="m1176 651h-8c-29.07 2.75-26.16 51.68 4 49 29.78 2.65 33.7-47.44 4-49z" fill="#134B36" stroke="None"/>
<path d="m1275 672v7c1.24 19.92 28.92 28.23 42.25 14.25 14.69-12.55 7.15-40.23-12.25-42.25h-10c-10.18 1.08-19.5 10.74-20 21z" fill="#104934" stroke="None"/>
<path d="m1275 679v-7c-1.71 1.26-1.47 5.67 0 7z" fill="#92A8A4" stroke="None"/>
<path d="m481 703v-8c-1.72 1.57-1.5 6.36 0 8z" fill="#707070" fill-opacity=".13" stroke="None"/>
<path d="M1401 697c11.68 2.33 25.5.33 38 1 1.57-.03 7.81.62 5-2-13.34 2.33-28.83.33-43 1z" fill="#CDD8AF" stroke="None"/>
<path d="m559 697h-35c10.52 1.68 24.41 1.65 35 0z" fill="#8EA299" stroke="None"/>
<path d="M487 722c1.14.03 1.72 1.53 3 1-1.01-1.71-2.78-4.05-5-4 .18 1.53 2.82.99 2 3z" fill="#C0C2C1" fill-opacity=".37" stroke="None"/>
<path d="M1071 726c-18.39-3.11-37.71 16.94-27.3 34.3 7.28 16.74 33.18 18.53 44.05 4.45 13.11-13.75.74-37.77-16.75-38.75z" fill="#134B35" stroke="None"/>
<path d="M802 854c1.1.03.81 1.34 1 2 2.33 26.43.33 54.82 1 82h42v-86c1.01-23.77-12.41-48.59-35.77-56.23-23.04-10.35-51.12-3.64-70.23 11.23v-69h-44v201h44c2.19-31.59-4.92-65.68 4.7-95.3 12.76-24.37 57.5-19.83 57.3 10.3z" fill="#0F4932" stroke="None"/>
<path d="m1124 739h42c-12.86-1.67-29.07-1.66-42 0z" fill="#7D9A95" stroke="None"/>
<path d="M1293 939c0 .04 1 0 1 0V739h43v-1h-44v201z" fill="#698881" stroke="None"/>
<path d="M1337 739v68c1.28.27 2.72-.77 3-2-4.58-1.47-.73-14.21-2-20-.66-15.51 1.33-32.24-1-47v1z" fill="#94ACA6" stroke="None"/>
<path d="M1436 739c3.5.62 8.32-1.27 11 1 2.52.38 4.76-.44 7-1-4.85-1.69-13.07-1.62-18 0z" fill="#DBE0E0" fill-opacity=".69" stroke="None"/>
<path d="M1236 833c4.18-4.99 9.04-9.89 14-14 2.98-4.43 7.97-7.53 11-12 2.95-5.05 11.21-9.44 12-14h-4c-14.43 2.33-30.82.34-46 1-7.49 6.01-13.56 14.04-21 20a731.886 731.886 0 01-36 36V739h-42c-4.62 7.76-.7 21.81-2 32v168h44c.05-12.64-.11-25.28.08-37.92 5.65-6.32 11.11-14.92 18.67-18.83 5.62 7.11 10.53 14.64 16.5 21.5 13.17 12.1 18.6 39.3 40.75 35.25h37c-18.99-29.68-42.94-56.76-63-86 6.96-6.12 13.82-13.01 20-20z" fill="#0F4A32" stroke="None"/>
<path d="M1294 939c14.17-.67 29.66 1.33 43-1 .67-25.83-1.33-52.99 1-78-4.36-35.67 58.08-44.89 59-7 2.33 27.43.33 56.82 1 85h43v-96c-.87-11.3-5.47-21.81-12-31-3.68-3.36-7.81-6.45-11-10-22.79-15.62-56.71-13.07-78 4-.28 1.23-1.72 2.27-3 2v-68h-43v200z" fill="#0D4931" stroke="None"/>
<path d="M1431 740h16c-2.68-2.27-7.5-.38-11-1-1.56.34-4.17-.75-5 1z" fill="#D6DCDA" fill-opacity=".25" stroke="None"/>
<path d="M521 801v12c1.02 24.04 24.97 37.83 45.32 43.68 19.6 9.55 50.83 4.55 61.68 26.32 1.5 1.64 1.72 6.43 0 8-8.1 18.45-33.37 14.15-49.99 12.99-16.11-3.08-31.15-10.16-45.01-18.99-5.59 10.61-10.25 21.51-15.97 31.97 16.93 18.5 45.22 22.88 69.97 24.03h17c39.86 3.78 82.47-32.82 67.92-74.92-15.05-39.96-64.72-34.51-96.69-50.31-23.25-12.57-.06-36.66 18.77-33.77 21.05-1.23 39.6 7.26 58 15 3.79-11.87 11.08-22.65 13-35-26.48-15.47-59.21-19.32-89.98-13.98-26.32 4.01-53.95 23.86-54.02 52.98z" fill="#0D4731" stroke="None"/>
<path d="M1408 749h-3c-1.19-.15-2.51.59-2 2 1.93-.66 5.26.5 5-2z" fill="#DEDDDE" fill-opacity=".52" stroke="None"/>
<path d="M1467 790c-.47-1.93-3.45-2.69-3-5-4.12-.34 1.68 6.76 3 5z" fill="#D1CDD1" fill-opacity=".43" stroke="None"/>
<path d="M904 802c-1.92 2.74-5.41 3.91-8 6-6.68 5.64-13.25 12.2-17 20-.97 2.37-2.75 4.39-3 7-9.73 25.02-4.96 53.61 8 76 29.28 37.84 97.92 41.97 128.92 5.08-6.36-8.22-15.31-14.88-21.92-23.08-10.09 6.12-20.4 13.36-33 13-2.61 1.56-8.46 1.72-11 0-15.93.26-31.67-12.11-34-28h109c4.55-28.46-6.24-60.32-31.75-75.25-25.05-16.78-60.68-14.97-86.25-.75m48 22c8.04.12 15.27 4.6 21.25 9.75 3.34 4.59 13.17 17.29 2.74 18.24-21 .02-41.99 0-62.99.01-.2-15.46 15.06-28.25 30-28 1.96-1.52 7.11-1.72 9 0z" fill="#0F4931" stroke="None"/>
<path d="M1088 939h-42c-1.67-47.6-1.67-98.47 0-146h43v145c2.34-37.35.33-76.83 1-115-2.96-9.61 7.26-32.28-8-31-12.32.51-25.32-1.03-37.22.78-1.82 37.93-.26 76.89-.78 115.22 3.02 9.7-7 31.79 7 32 12.18-.66 25.57 1.32 37-1z" fill="#D0DDD9" stroke="None"/>
<path d="M1223 793h50c-.23-.36 0-1 0-1-16.51.66-34.24-1.33-50 1z" fill="#CFE1DC" stroke="None"/>
<path d="M1273 793c-.79 4.56-9.05 8.95-12 14 3.5-4.12 15.28-11.21 12-15 0 0-.23.64 0 1z" fill="#889992" stroke="None"/>
<path d="M1046 939c-.04 0 0-1 0-1V793c-1.67 47.53-1.67 98.4 0 146z" fill="#56736C" stroke="None"/>
<path d="M1046 794c13.87-.1 28.84.13 42 0v144h-42s-.04 1 0 1h42c.3-.22.78-.7 1-1V793h-43v1z" fill="#416257" stroke="None"/>
<path d="M1202 814c7.44-5.96 13.51-13.99 21-20 .23-.16 0-1 0-1-7.29 6.45-14.49 13.67-21 21z" fill="#97AFAB" stroke="None"/>
<path d="M1223 794c15.18-.66 31.57 1.33 46-1h-46s.23.84 0 1z" fill="#486C61" stroke="None"/>
<path d="M1046 938h42V794c-13.16.13-28.13-.1-42 0v144z" fill="#0B4831" stroke="None"/>
<path d="m521 813v-12c-1.71 2.87-1.57 9.06 0 12z" fill="#6F8B85" stroke="None"/>
<path d="m1429 811c-2.87-3.99-6.82-7.51-11-10 3.19 3.55 7.32 6.64 11 10z" fill="#819D92" stroke="None"/>
<path d="m896 808c2.59-2.09 6.08-3.26 8-6-2.86 1.65-6.24 2.98-8 6z" fill="#9CAEAE" stroke="None"/>
<path d="m1236 833c4.97-4.11 9.81-9.01 14-14-4.96 4.11-9.82 9.01-14 14z" fill="#7E9790" stroke="None"/>
<path d="m943 824h9c-1.89-1.72-7.04-1.52-9 0z" fill="#6E817B" stroke="None"/>
<path d="M952 824h-9c-14.94-.25-30.2 12.54-30 28 21-.01 41.99.01 62.99-.01 10.43-.95.6-13.65-2.74-18.24-5.98-5.15-13.21-9.63-21.25-9.75z" fill="#ECEEEE" stroke="None"/>
<path d="M875 835c.09-.2 1 0 1 0 .25-2.61 2.03-4.63 3-7-2.45 1.28-3.34 4.54-4 7z" fill="#879B9F" stroke="None"/>
<path d="M884 911c-12.96-22.39-17.73-50.98-8-76 0 0-.91-.2-1 0-10.07 24.28-7.71 55.54 9 76z" fill="#355552" stroke="None"/>
<path d="M1441 846c2.33 30.1.33 62.15 1 93h-44c11.01 2.33 24.17.33 36 1 15.64 3.01 6.65-17.98 9-27-1.25-23.44 2.55-48.73-2-71v4z" fill="#C5D1CB" stroke="None"/>
<path d="M1398 938v1h44c-.67-30.85 1.33-62.9-1-93v92h-43z" fill="#436257" stroke="None"/>
<path d="m846 937c1.67-27.19 1.66-57.73 0-85v85z" fill="#7F958B" stroke="None"/>
<path d="M1398 939v-1c-.67-28.18 1.33-57.57-1-85 .67 28.52-1.33 58.23 1 86z" fill="#849A9C" stroke="None"/>
<path d="M803 939c-.04 0 0-1 0-1v-82c-.19-.66.1-1.97-1-2 .67 28.18-1.33 57.57 1 85z" fill="#99A6A8" stroke="None"/>
<path d="M803 938c.25-.25 1 0 1 0-.67-27.18 1.33-55.57-1-82v82z" fill="#2D4E48" stroke="None"/>
<path d="M1337 938c.32-.24 1 0 1 0v-78c-2.33 25.01-.33 52.17-1 78z" fill="#8EA7A0" stroke="None"/>
<path d="m628 891c1.72-1.57 1.5-6.36 0-8v8z" fill="#93A8A4" stroke="None"/>
<path d="m958 906h-11c2.54 1.72 8.39 1.56 11 0z" fill="#789390" stroke="None"/>
<path d="M803 939h43v-1h-42s-.75-.25-1 0c0 0-.04 1 0 1z" fill="#4C6B60" stroke="None"/>
<path d="M1294 939s-1 .04-1 0c13.7 1.02 32.03 2.97 45-1 0 0-.68-.24-1 0-13.34 2.33-28.83.33-43 1z" fill="#C4CEC8" stroke="None"/>
<path d="m846 939h-43c13.19 1.67 29.74 1.66 43 0z" fill="#CED6D5" stroke="None"/>
<path d="m604 941h-17c4.52 1.7 12.41 1.62 17 0z" fill="#738A80" stroke="None"/>
<path d="M525 972c1.9-2.97-3.84-.84-5-2 .54 2.26 3.17 2.12 5 2z" fill="#C2C2C2" fill-opacity=".42" stroke="None"/>
<path d="M715 1161v-149c-1.28-11.36 2.6-25.19-2-35-12.34.5-25.29-1-37.25.75-4.03 10.51-.62 23.7-1.75 35.25v148h41z" fill="#97B763" stroke="None"/>
<path d="M1402 1161c0 .04 1 0 1 0 12.09-2.32 26.16-.34 39-1V978c-.24-.32 0-1 0-1-12.64.05-25.28-.11-37.91.08-4.81 9.44-.74 23.65-2.09 34.92v149z" fill="#95B560" stroke="None"/>
<path d="M1442 978c2.33 60.1.33 122.15 1 183h-40s-1 .04-1 0c10.73 1.44 21.47.78 32 1 15.26 4.1 8.67-14.21 10-23v-99c-1.32-20.69 2.65-43.86-2-63 0 0-.24.68 0 1z" fill="#EFF6DF" stroke="None"/>
<path d="M1221 1050c-10-13.37-24.95-21.58-41-24h-19c-10.78.07-19.99 6.2-29 11-4.31.06-.93-12.24-2-17v-42h-39v183h37v-13c25.36 21.13 67 19.96 89.75-5.25 22.38-24.66 23.03-66.49 3.25-92.75m-53 7c40.98 6.51 33.15 80.66-11 73-41.42-6.92-32.58-80.08 11-73z" fill="#93B45D" stroke="None"/>
<path d="M1403 1161h40c-.67-60.85 1.33-122.9-1-183v182c-12.84.66-26.91-1.32-39 1z" fill="#B3C391" stroke="None"/>
<path d="M556 984c3.13.15 6.8.04 9-2h-6c-.15 1.83-2.76.33-3 2z" fill="#5E6061" fill-opacity=".32" stroke="None"/>
<path d="M868 1115c3.68-3.79 2.65-10.65 3-16v-78h-61c3.07-11.31-8.44-37.78 11-34h91c-.67 39.5 1.33 80.32-1 119 .53 4.54-1.72 8.39-1 13 5.54-11.35 2.01-26.08 3-39v-83c4-17.51-17.95-9.56-28-12-25.58.43-49.98-.69-75 0-3.18 9.17-2.6 19.47-1.99 27.99-1.41 14.77 16.78 7.22 25.99 9.01h35c1.21 30 2.49 62.78-1 93z" fill="#F1F5E5" stroke="None"/>
<path d="M871 1099c2.33-22.1.34-46.15 1-69 4.03-15.95-15.9-8.26-25-10h-36c2.53-11.38-7.89-36.82 12-32h88v118c2.33-38.68.33-79.5 1-119h-91c-19.44-3.78-7.93 22.69-11 34h61v78z" fill="#C2D0A4" stroke="None"/>
<path d="M1132 1037c9.01-4.8 18.22-10.93 29-11 5.26-1.63 13.81-1.69 19 0 16.05 2.42 31 10.63 41 24-10.57-21.2-38.91-28.3-60.78-25.78-6.67 4.06-18.12-.51-20.22 5.78-9.27-11.49-6.53-26.93-8-43-1.67 15.52-1.66 34.4 0 50z" fill="#EFF4E1" stroke="None"/>
<path d="M871 1099c-.35 5.35.68 12.21-3 16-9.45 26.62-42.37 10.35-55-5-6.42 10.24-14.35 19.45-22 29 30.96 36.46 110.55 34.66 119-20-.72-4.61 1.53-8.46 1-13V988h-88c-19.89-4.82-9.47 20.62-12 32h36c9.1 1.74 29.03-5.95 25 10-.66 22.85 1.33 46.9-1 69z" fill="#93B45D" stroke="None"/>
<path d="m490 1016c3.65-1.12 10.8-8.84 12-11-5.33 1.92-8.72 6.69-12 11z" fill="#CFCFCB" fill-opacity=".45" stroke="None"/>
<path d="M646 1161c-5.25-40.01 13.44-89.27-16.25-120.75-29.41-24.27-75.05-17.41-105.75.75 5.47 8.6 8.17 18.53 14 27 19.37-13.68 66.36-20.73 68 13-26.26.96-56.45-5.11-76.25 14.75-17.97 16.37-13.41 50.08 9.17 60.33 21.56 10.72 51.41 10.05 69.08-8.08 2.04 3.88.55 8.7 1 13h37m-40-56c2.36 14.6-6.08 29.32-21.22 30.78-13.91 4.57-33.75-8.55-24.47-23.47 11.19-12.87 30.54-5.25 45.69-7.31z" fill="#92B35C" stroke="None"/>
<path d="M1062 1161c-4.05-40.13 11.4-88.24-16.75-120.25-29.39-24.58-74.21-17.5-105.25-.75 2.26 8.64 7.37 16.51 11.7 24.3 6.16 5.93 15.97-6.02 24.28-5.32 17.05-5.84 47.83-2.17 45.02 22.02-26.3 1-57.01-5.38-76.25 15.75-18.65 16.84-12.17 50.14 10.56 59.94 22.07 11.3 51.14 7.1 69.69-8.69v13h37m-42-39c-7.63 19.71-49.8 19.56-46-5 .9-7.76 9.61-12.61 17-12 7.42-2.3 16.82-.36 25-1 9.38-1.9 6.73 13.63 4 18z" fill="#93B45D" stroke="None"/>
<path d="m1161 1026h19c-5.19-1.69-13.74-1.63-19 0z" fill="#C2CD9D" stroke="None"/>
<path d="M1373 1161c-.65-30.25 1.32-61.17-1-91-4.48-41.58-55.89-51.58-89.93-41.93-9.48 4-25.35 5.97-29.37 15.23 6.45 6.3 7.65 29.05 19.27 20.67 18.88-9.81 61.25-14.14 61.03 17.03-26.56.63-56.69-4.6-76.75 15.25-16.82 17.66-11.72 50.33 11.06 60.44 22.04 11.31 51.31 7.46 69.69-8.69-2.27 9.49 1.76 15.93 12 13h24m-40-56c3.24 14.95-6.31 29.17-21.22 30.78-14.15 4.22-33.99-7.99-24.47-23.47 11.19-12.87 30.54-5.25 45.69-7.31z" fill="#93B35E" stroke="None"/>
<path d="m1168 1057c-43.58-7.08-52.42 66.08-11 73 44.15 7.66 51.98-66.49 11-73z" fill="#FBFCF6" stroke="None"/>
<path d="M991 1105h30v4c-.11 4.4.52 8.95-1 13 2.73-4.37 5.38-19.9-4-18-8.18.64-17.58-1.3-25 1z" fill="#C9D6A7" stroke="None"/>
<path d="m606 1105c-15.15 2.06-34.5-5.56-45.69 7.31-9.28 14.92 10.56 28.04 24.47 23.47 15.14-1.46 23.58-16.18 21.22-30.78z" fill="#FDFEF9" stroke="None"/>
<path d="M974 1117c2.23-3.5 9.23-11.4 16.67-10.33 9.43-1.55 19.61-.24 29.33-.67.11 1-.47 2.73 1 3v-4h-30c-7.39-.61-16.1 4.24-17 12z" fill="#F4F7DD" stroke="None"/>
<path d="m1333 1105c-15.15 2.06-34.5-5.56-45.69 7.31-9.52 15.48 10.32 27.69 24.47 23.47 14.91-1.61 24.46-15.83 21.22-30.78z" fill="#FBFDF4" stroke="None"/>
<path d="M476 1111c2.12-.37 2.86-4.05 1-5-.93 1.53-1.23 3.17-1 5z" fill="#B6B8B9" fill-opacity=".36" stroke="None"/>
<path d="M974 1117c-3.8 24.56 38.37 24.71 46 5 1.52-4.05.89-8.6 1-13-1.47-.27-.89-2-1-3-9.72.43-19.9-.88-29.33.67-7.44-1.07-14.44 6.83-16.67 10.33z" fill="#FDFDF8" stroke="None"/>
<path d="m771 1180c-1.15-2.42-3.65-3.98-6-5 1.73 1.87 3.86 4.16 6 5z" fill="#B4B7B5" fill-opacity=".16" stroke="None"/>
<path d="M777 1185c2.49 1.45 4.64 3.26 7 5-.53-3.19-5.05-5.53-7-5z" fill="#BBB" fill-opacity=".27" stroke="None"/>
<path d="M1250 1196c.32 1.46 2.13 1.05 3 2 2.13-1.86-2.22-3.83-3-2z" fill="#CDCFD6" fill-opacity=".38" stroke="None"/>
<path d="M1009 1202c2.78.3 5.47.86 8 2-.28-.67-1.48-1.78 0-2-1.66-2.63-6.29-2.57-8 0z" fill="#C9D5C1" fill-opacity=".72" stroke="None"/>
<path d="M1017 1204c12.86 2.24 26.73.4 40 1-10.42-5.66-28.35 1.18-40-3-1.48.22-.28 1.33 0 2z" fill="#D8D8D6" fill-opacity=".45" stroke="None"/>
<path d="M1329 1203c2.39 2.45 5.75 2.11 9 2-.53-1.6-2.75-.72-4-1-2.07 1.31-3.92-2.63-5-1z" fill="#C3C3C7" fill-opacity=".11" stroke="None"/>
<path d="M607 1205c16.25-.65 33.17 1.32 49-1-7.34-2.33-16.84-.34-25-1-7.51 1.24-18.91-2.54-24 2z" fill="#C8C8CA" fill-opacity=".29" stroke="None"/>
<path d="M1101 1205h34c-3.83-4.33-11.6-.91-17-2-5.21 1.14-14.2-2.4-17 2z" fill="#C7C7CA" fill-opacity=".34" stroke="None"/>
<path d="M1334 1204c1.25.28 3.47-.6 4 1 .5-.03 1.5 0 2 0 1.14-1.87 4.13-.61 6-1-2.87-1.71-9.06-1.57-12 0z" fill="#D9D8DB" fill-opacity=".64" stroke="None"/>
<path d="M1347 1204c.35.03.77.95 1 1 6.15.44 12.42-.73 18 0-3.33-3.89-14.01-2.06-19-1z" fill="#C8C7C6" fill-opacity=".28" stroke="None"/>
<path d="M1372 1204h7c.5 0 1.5-.02 2 0-1.38-1.74-9.82-1.52-9 0z" fill="#EAEAEA" fill-opacity=".48" stroke="None"/>
<path d="M1395 1204c14.24 2.04 29.36.54 44 1-4.16-4.03-14.91-1.05-22-2-7.59.15-15.6-.15-22 1z" fill="#CDCED0" fill-opacity=".42" stroke="None"/>
<path d="M1340 1205h8c-.23-.05-.65-.97-1-1 0 0-.51.05-1 0-1.87.39-4.86-.87-6 1z" fill="#AEAEB0" fill-opacity=".05" stroke="None"/>
<path d="M1372 1205c2.2-.44 5.55.96 7-1h-7s.1.98 0 1z" fill="#9B9B9B" fill-opacity=".02" stroke="None"/>
<path d="M1163 1206c.75 2.3 2.61-.54 4 0h13s.5.01 1 0c-4.85-1.69-13.08-1.62-18 0z" fill="#E9E8E8" fill-opacity=".61" stroke="None"/>
<path d="M856 1207c2.2-.44 5.55.96 7-1-2.2.44-5.55-.96-7 1z" fill="#8E748C" fill-opacity=".02" stroke="None"/>
<path d="m1180 1206h-13c3.19 1.71 9.73 1.59 13 0z" fill="#797977" fill-opacity=".03" stroke="None"/>
</svg>
